HIERARCHY
ROOT Hips
{
	OFFSET -14.64140 90.27770 -84.91600
	CHANNELS 6 Xposition Yposition Zposition Zrotation Xrotation Yrotation
	JOINT Spine
	{
		OFFSET 0.00000 13.20850 -1.60436
		CHANNELS 3 Zrotation Xrotation Yrotation
		JOINT Spine1
		{
			OFFSET 0.00000 8.61716 0.00000
			CHANNELS 3 Zrotation Xrotation Yrotation
			JOINT Spine2
			{
				OFFSET 0.00000 8.61717 0.00000
				CHANNELS 3 Zrotation Xrotation Yrotation
				JOINT Spine3
				{
					OFFSET 0.00000 8.61717 0.00000
					CHANNELS 3 Zrotation Xrotation Yrotation
					JOINT Neck
					{
						OFFSET 0.00000 11.07920 1.10792
						CHANNELS 3 Zrotation Xrotation Yrotation
						JOINT Neck1
						{
							OFFSET 0.00000 7.08032 0.00000
							CHANNELS 3 Zrotation Xrotation Yrotation
							JOINT Head
							{
								OFFSET 0.00000 7.08031 0.00000
								CHANNELS 3 Zrotation Xrotation Yrotation
								End site
								{
									OFFSET 0.00000 0.00000 0.00000
								}
							}
						}
					}
					JOINT RightShoulder
					{
						OFFSET -0.01000 7.91373 5.19711
						CHANNELS 3 Zrotation Xrotation Yrotation
						JOINT RightArm
						{
							OFFSET -18.41580 0.00000 0.00000
							CHANNELS 3 Zrotation Xrotation Yrotation
							JOINT RightForeArm
							{
								OFFSET -29.11090 0.00000 0.00000
								CHANNELS 3 Zrotation Xrotation Yrotation
								JOINT RightHand
								{
									OFFSET -24.65040 0.00000 0.00000
									CHANNELS 3 Zrotation Xrotation Yrotation
									JOINT RightHandThumb1
									{
										OFFSET -5.35114 -0.85590 3.97906
										CHANNELS 3 Zrotation Xrotation Yrotation
										JOINT RightHandThumb2
										{
											OFFSET -4.52789 0.00000 0.00000
											CHANNELS 3 Zrotation Xrotation Yrotation
											JOINT RightHandThumb3
											{
												OFFSET -2.46976 0.00000 0.00000
												CHANNELS 3 Zrotation Xrotation Yrotation
												End site
												{
													OFFSET 0.00000 0.00000 0.00000
												}
											}
										}
									}
									JOINT RightHandIndex1
									{
										OFFSET -14.26970 0.00000 2.88139
										CHANNELS 3 Zrotation Xrotation Yrotation
										JOINT RightHandIndex2
										{
											OFFSET -5.48836 0.00000 0.00000
											CHANNELS 3 Zrotation Xrotation Yrotation
											JOINT RightHandIndex3
											{
												OFFSET -3.01859 0.00000 0.00000
												CHANNELS 3 Zrotation Xrotation Yrotation
												End site
												{
													OFFSET 0.00000 0.00000 0.00000
												}
											}
										}
									}
									JOINT RightHandMiddle1
									{
										OFFSET -14.26970 0.00000 -0.09147
										CHANNELS 3 Zrotation Xrotation Yrotation
										JOINT RightHandMiddle2
										{
											OFFSET -6.17441 0.00000 0.00000
											CHANNELS 3 Zrotation Xrotation Yrotation
											JOINT RightHandMiddle3
											{
												OFFSET -3.56743 0.00000 0.00000
												CHANNELS 3 Zrotation Xrotation Yrotation
												End site
												{
													OFFSET 0.00000 0.00000 0.00000
												}
											}
										}
									}
									JOINT RightHandRing1
									{
										OFFSET -12.69180 0.00000 -3.06433
										CHANNELS 3 Zrotation Xrotation Yrotation
										JOINT RightHandRing2
										{
											OFFSET -5.62556 0.00000 0.00000
											CHANNELS 3 Zrotation Xrotation Yrotation
											JOINT RightHandRing3
											{
												OFFSET -3.56744 0.00000 0.00000
												CHANNELS 3 Zrotation Xrotation Yrotation
												End site
												{
													OFFSET 0.00000 0.00000 0.00000
												}
											}
										}
									}
									JOINT RightHandPinky1
									{
										OFFSET -11.11390 0.00000 -6.03719
										CHANNELS 3 Zrotation Xrotation Yrotation
										JOINT RightHandPinky2
										{
											OFFSET -4.52789 0.00000 0.00000
											CHANNELS 3 Zrotation Xrotation Yrotation
											JOINT RightHandPinky3
											{
												OFFSET -2.46976 0.00000 0.00000
												CHANNELS 3 Zrotation Xrotation Yrotation
												End site
												{
													OFFSET 0.00000 0.00000 0.00000
												}
											}
										}
									}
								}
							}
						}
					}
					JOINT LeftShoulder
					{
						OFFSET 0.01000 7.91373 5.19711
						CHANNELS 3 Zrotation Xrotation Yrotation
						JOINT LeftArm
						{
							OFFSET 18.41580 0.00000 0.00000
							CHANNELS 3 Zrotation Xrotation Yrotation
							JOINT LeftForeArm
							{
								OFFSET 29.11090 0.00000 0.00000
								CHANNELS 3 Zrotation Xrotation Yrotation
								JOINT LeftHand
								{
									OFFSET 24.65040 0.00000 0.00000
									CHANNELS 3 Zrotation Xrotation Yrotation
									JOINT LeftHandThumb1
									{
										OFFSET 5.35114 -0.85590 3.97906
										CHANNELS 3 Zrotation Xrotation Yrotation
										JOINT LeftHandThumb2
										{
											OFFSET 4.52789 0.00000 0.00000
											CHANNELS 3 Zrotation Xrotation Yrotation
											JOINT LeftHandThumb3
											{
												OFFSET 2.46977 0.00000 0.00000
												CHANNELS 3 Zrotation Xrotation Yrotation
												End site
												{
													OFFSET 0.00000 0.00000 0.00000
												}
											}
										}
									}
									JOINT LeftHandIndex1
									{
										OFFSET 14.26970 0.00000 2.88139
										CHANNELS 3 Zrotation Xrotation Yrotation
										JOINT LeftHandIndex2
										{
											OFFSET 5.48836 0.00000 0.00000
											CHANNELS 3 Zrotation Xrotation Yrotation
											JOINT LeftHandIndex3
											{
												OFFSET 3.01859 0.00000 0.00000
												CHANNELS 3 Zrotation Xrotation Yrotation
												End site
												{
													OFFSET 0.00000 0.00000 0.00000
												}
											}
										}
									}
									JOINT LeftHandMiddle1
									{
										OFFSET 14.26970 0.00000 -0.09147
										CHANNELS 3 Zrotation Xrotation Yrotation
										JOINT LeftHandMiddle2
										{
											OFFSET 6.17440 0.00000 0.00000
											CHANNELS 3 Zrotation Xrotation Yrotation
											JOINT LeftHandMiddle3
											{
												OFFSET 3.56744 0.00000 0.00000
												CHANNELS 3 Zrotation Xrotation Yrotation
												End site
												{
													OFFSET 0.00000 0.00000 0.00000
												}
											}
										}
									}
									JOINT LeftHandRing1
									{
										OFFSET 12.69180 0.00000 -3.06433
										CHANNELS 3 Zrotation Xrotation Yrotation
										JOINT LeftHandRing2
										{
											OFFSET 5.62556 0.00000 0.00000
											CHANNELS 3 Zrotation Xrotation Yrotation
											JOINT LeftHandRing3
											{
												OFFSET 3.56744 0.00000 0.00000
												CHANNELS 3 Zrotation Xrotation Yrotation
												End site
												{
													OFFSET 0.00000 0.00000 0.00000
												}
											}
										}
									}
									JOINT LeftHandPinky1
									{
										OFFSET 11.11390 0.00000 -6.03719
										CHANNELS 3 Zrotation Xrotation Yrotation
										JOINT LeftHandPinky2
										{
											OFFSET 4.52789 0.00000 0.00000
											CHANNELS 3 Zrotation Xrotation Yrotation
											JOINT LeftHandPinky3
											{
												OFFSET 2.46976 0.00000 0.00000
												CHANNELS 3 Zrotation Xrotation Yrotation
												End site
												{
													OFFSET 0.00000 0.00000 0.00000
												}
											}
										}
									}
								}
							}
						}
					}
					JOINT pCube4
					{
						OFFSET 0.00000 10.91090 1.10792
						CHANNELS 3 Zrotation Xrotation Yrotation
						End site
						{
							OFFSET 0.00000 0.00000 0.00000
						}
					}
				}
			}
		}
	}
	JOINT RightUpLeg
	{
		OFFSET -9.98441 0.00000 0.00000
		CHANNELS 3 Zrotation Xrotation Yrotation
		JOINT RightLeg
		{
			OFFSET 0.00000 -42.11790 0.00000
			CHANNELS 3 Zrotation Xrotation Yrotation
			JOINT RightFoot
			{
				OFFSET 0.00000 -45.00020 -0.00001
				CHANNELS 3 Zrotation Xrotation Yrotation
				JOINT RightForeFoot
				{
					OFFSET 0.00000 -3.74820 0.00000
					CHANNELS 3 Zrotation Xrotation Yrotation
					JOINT RightToeBase
					{
						OFFSET 0.00000 0.06325 14.43120
						CHANNELS 3 Zrotation Xrotation Yrotation
						End site
						{
							OFFSET 0.00000 0.00000 0.00000
						}
					}
				}
			}
		}
	}
	JOINT LeftUpLeg
	{
		OFFSET 9.98441 0.00000 0.00000
		CHANNELS 3 Zrotation Xrotation Yrotation
		JOINT LeftLeg
		{
			OFFSET 0.00000 -42.11800 0.00000
			CHANNELS 3 Zrotation Xrotation Yrotation
			JOINT LeftFoot
			{
				OFFSET 0.00000 -45.00070 0.00000
				CHANNELS 3 Zrotation Xrotation Yrotation
				JOINT LeftForeFoot
				{
					OFFSET 0.00000 -3.74824 0.00000
					CHANNELS 3 Zrotation Xrotation Yrotation
					JOINT LeftToeBase
					{
						OFFSET 0.00000 0.06325 14.43110
						CHANNELS 3 Zrotation Xrotation Yrotation
						End site
						{
							OFFSET 0.00000 0.00000 0.00000
						}
					}
				}
			}
		}
	}
}
MOTION
Frames: 4
Frame Time: 0.050000
0.045343859430705034 -0.018150384311345615 -0.0023929633647571035 -0.0026177662394309144 0.035936330724262416 -0.007423763358284286 1.3917150566962464 2.409140485730867 -1.4987768924885376 -0.5104820393466227 3.950990242365638 0.35578192801283487 -0.6383286219906922 -1.516779840251198 1.8262827025685822 -0.8222644059859974 -0.6310354395281198 -0.19852462650428007 0.021565998759895275 12.424489406885879 -0.78480170473977 0.5085450682950673 -1.1612879608168258 -3.0712927652274886 0.9324795825111457 -17.114564900024984 -0.28093533072661053 -4.523342915061092 1.8950490137862857 -16.16865703980177 72.53631972311587 15.25701705517009 6.941409843843029 0.3891837738338924 1.4496586677930527 65.52183324096332 27.301369707561683 -0.3014973870571276 -5.72798068515007 4.518924492679174 -0.169086191504633 -1.565154774316558 -0.01342119668949257 0.049749453446266384 -56.23792458628289 -0.007781510933482054 0.046674332322737766 -56.194020012919445 -38.76610392985402 -0.024599320468879218 -0.008631752777708513 0.022150302252277862 -0.02741786373902923 0.020545770556250325 0.031205743388913274 -0.03478410023088159 0.00033945063796212154 -36.6472898092133 0.03831019497985455 0.03604980908555387 0.026918163077718948 0.04793208668892051 0.02414188929223055 -0.004668134424309858 0.009771176237217821 0.026370314099399952 -19.78886607108117 -0.018509876042083952 0.03748416951051608 0.018239514591090158 -0.03604765525781627 -0.04731143384583897 0.0330541725727801 -0.028755257047462866 0.04112224114397482 24.009671370659653 0.024890318956245095 -0.019366722415076042 28.871843312190375 -0.03566802388854998 -0.014864650763086582 28.87629892600251 0.0011262089903960248 -0.014363479218348192 4.351680186327907 1.3417290748879396 14.960593837571581 -79.17079238448959 22.14387077848663 -2.066843210400972 9.48879109314101 3.9183602563414275 -36.75553337414499 -28.587987880409024 9.250469340786664 -5.130573737467221 -0.4614002245178758 0.10051529893876993 -8.081564152011616 0.009940027044890014 0.02295257839678009 44.60120356072947 0.02644594391356474 -0.014856382702749653 44.602059758074056 12.476633532208634 0.04165548808702589 -0.033375917820967604 0.04354835939535682 0.0008434965808729325 0.025538256817904136 -0.03551033394447437 -0.04917818377521557 -0.0024489493634955277 11.14196967798026 -0.011684234797361076 -0.02489232036891466 0.011235690829828775 0.03176741651170332 -0.014552916720176666 0.040714541582265645 -0.004572755869559006 0.041763190747570476 4.799248620375967 -0.027199360382401238 -0.046693424714162296 0.03525008404154742 -0.04272354069752607 0.03469808690545357 -0.006512367616032118 0.01841869678449471 0.04199240794099607 -5.584043835966658 0.014662614298191736 -0.014491639506996064 -6.757633958790655 -0.0297043841715785 0.03802760072110788 -6.744009377142969 0.04480942546539926 0.03949752546583319 -0.028112363920109396 0.003681571612249856 0.006683743096738467 8.076161736299495 3.5076273288366444 -19.192856338361917 -0.0324038980910616 10.414705828565088 0.03260757395334568 -5.607819301506494 -15.685295496923501 3.217930740573089 0.016113621974652593 0.04586077605127939 0.04131615464583868 0.04693795590373973 4.735970726769141 0.010483276185919483 12.418968494263543 -8.227203316447683 6.8624842090129174 0.029598557291524368 46.35217240348322 -0.04758900120988431 -4.320930122393811 -14.700563178636264 -3.8470573403071473 -0.014190026356988954 0.011967327078347354 -0.04842347751095325 0.030355889495234024 -10.725884141544688 0.020080747403739926 
-0.013783179803913371 0.02381495102130212 0.01769269488660391 0.03986630843553843 -0.03446192295668984 0.001427674763079917 1.8156617443517697 2.5905744448040826 -1.5383549939579289 -0.5500792171319228 3.8576834265019553 0.33216810663395924 -0.7228155068675596 -1.4204106103738758 1.6764320518795723 -0.8570713765457824 -0.6134801375433117 -0.22453573332370555 0.06387760473683979 12.294573359239934 -0.9094090489563935 0.4896266474008227 -1.1139137795519296 -2.9777480235712175 0.979613772415307 -17.102930147359796 -0.2988252665735588 -5.083881807587673 2.0299556246774833 -16.388727090672813 74.39823153448611 13.980304718150368 5.996821820836361 -1.6480868204905241 0.7538955887095065 61.82622186243918 26.989550646428757 -0.24180961028140044 -5.698035366918897 4.501661269422325 -0.1260309587107227 -1.5651878375043462 -0.013826494695175441 -0.031518161405720835 -56.235987516973864 0.02827196155706784 0.045616253128140105 -56.19140945251858 -38.72330157865713 -0.03853579482276909 0.023011347942442202 -0.008579322063798992 -0.02213108210304728 0.02301640127394588 -0.006293007218152529 -0.03499971168089953 0.017407670446164685 -36.720691423263204 0.03930593534603381 -0.032488953263848444 0.04293426595162056 0.008736341046602859 -0.0011044330302399492 0.04801186280039804 0.013466793339803523 0.007232551332589461 -19.76428474780776 -0.044963423037331154 -0.026973358312856875 0.03766969241256688 -0.025650895191773652 0.031549028362482 -0.005873164240523661 0.04716669536277932 0.03443213506874652 24.01613700308893 -0.04252037091793161 -0.002550130185580792 28.845818181460345 0.006600665018503054 0.022510155726029824 28.877812262821298 -0.045973979714232095 0.025632385686567758 4.788973101646435 1.4483058401800173 14.923335341051404 -79.33553694830495 21.748813692796492 -2.5980543956852538 9.413379954197548 3.51195109265758 -36.2029062692664 -27.70374159591714 8.062938319108175 -4.063101924817857 -0.49758656632712994 0.0980266407066598 -8.075911721745975 0.012432945755027397 0.011659359391355881 44.55792524688495 0.01191247284700036 0.004925726294066597 44.54450281519376 12.484154360290617 0.015335318012849668 -0.007909722837366294 -0.014015730210507575 0.023464595025940213 -0.023373466585295398 -0.03819530702753486 -0.014925507272856556 -0.02260416982173644 11.0903919925615 -0.03746562388531679 0.0032251199945237366 -0.03524270388995912 0.0313618352689679 0.02754835393656577 -0.038671950469629846 -0.028685128542739864 0.0029207142457861046 4.746006105140994 0.022657354767813324 -0.04775879554405957 -0.013138153656752074 -0.02901458552825384 0.016260713434041917 0.028669528494710984 0.024155097163062418 0.04212313945259168 -5.594493663570459 0.03072968761646535 -0.003168981766305952 -6.67137763137337 0.021270393473715565 0.029619294365582676 -6.7116125864148914 0.017532128229553127 -0.03477813770366648 0.029241211919698896 -0.008811001788751204 -0.011804837282844394 8.044401599432586 3.4865788579849823 -19.24625376725704 0.0341452228223509 10.413422069648513 -0.017456418449987656 -5.610726202802087 -15.644887651972812 3.148935081609374 0.01327772389536098 -0.012081201628897874 -0.025529684786334092 -0.016506079843594586 4.729657491082747 -0.010255190660584544 12.46800077103645 -8.206276028270151 6.8897303848164615 0.04087163557948387 46.41425818467775 -0.008483796708544161 -4.3521312880259515 -14.764897569817688 -3.8002839046904553 0.007729719365679024 -0.027739753391765178 -0.006826720208121482 -0.041251264572299086 -10.710258723924397 -0.025250205110575054 
0.04380648485597887 -0.0256434526135445 -0.046549710999345954 0.0030840108585966494 -0.01474334965179426 0.002063834514003907 2.294347558120038 2.653771023092994 -1.6707656864035076 -0.510152843749268 3.8167306442225617 0.40439462216309796 -0.6589276517260977 -1.4038171351658992 1.5875074563550942 -0.8145855355208937 -0.5587083780606361 -0.1725201972955047 0.1473906903647258 12.32680511145968 -1.040569832467666 0.5123876481912619 -1.0080948050274878 -3.0151276438584715 1.0450239174860092 -17.11101617406421 -0.27157671096766717 -5.80420519792754 2.3142727643519327 -16.76585229967125 76.20790924356953 13.015388073957318 5.639223564451705 -3.540596510597757 0.19222501477412007 59.61106869744522 26.62422609640651 -0.2964098442506686 -5.777280969208892 4.534883480688235 -0.14551089931456326 -1.6116278826889026 0.012076817546687033 0.03565267092645456 -56.260361291477174 -0.015195539268391699 0.04908040910813463 -56.19737976488742 -38.76077511487173 0.0020966588775991487 0.02466239589479444 -0.04160844697409914 -0.0020136533668691915 0.022102909607297723 -0.026652077976159448 0.014960370766816913 0.03943212699596052 -36.71260933371393 0.04697393484803539 0.028733271863335744 0.02906024642758869 0.045990454069643846 0.04579894017816458 0.005310283496024505 -0.037478910911234405 0.04785694561691054 -19.709608367848094 0.012566920392366435 0.03871450264958105 0.022448640712947037 -0.011664935966593605 -0.01351890250902609 0.021365270053018536 -0.04525571343464482 -0.013657759732388787 24.079287558058997 0.008578599396398533 -0.03814715639444237 28.848993313090848 -0.033100119538109006 0.04078677720558593 28.84561502803028 0.0031356027568827 0.013378557676028163 5.388354205225142 1.6044020790404703 15.027583077677502 -79.5887828874611 21.248196031174007 -3.156553324949373 9.353055391457428 3.678154853378487 -35.80796360240613 -27.0634923267098 7.036650102786111 -3.1981013073586904 -0.4507043470000579 0.06092578723603376 -8.104709731284236 -0.021822062086840614 0.02775402811549336 44.58753397952542 0.022682341285114187 -0.004078798321113636 44.56514096680092 12.41649429457499 0.0408947289498911 -0.006283332129882674 0.040768921981479495 -0.028878865498829995 0.018113302441517036 -0.03940647933924529 -0.017672336614256188 -0.03321451811799149 11.130034675562673 -0.005952485120851524 -0.002043133527849703 -0.0036743272210908156 0.042230468116343296 -0.006202819909131753 -0.010713120867288444 0.007588274152824928 0.005336309201263013 4.749426856545252 -0.026368714963087132 0.0028247861391413475 -0.026668091331569242 -0.01038286675957278 0.02097251456369218 -0.03903603683879341 -0.008716809645158922 -0.03931147742783365 -5.571753373961155 -0.02981734484100879 -0.00012351150783645957 -6.682894797049498 -0.028209394719619856 0.013009804776679857 -6.705358588469818 -0.007565455160313299 0.012335637307851295 0.04405970373234822 0.03080616131642317 0.013823033762934433 8.038255791554372 3.498573109759108 -19.23060956360898 -0.01206788129864594 10.414914414107104 0.032016094507203066 -5.651292294550689 -15.61257774266064 3.206904114921857 -0.013061889209250164 -0.04411517482721331 -0.024695245225539102 0.013519061576834093 4.697095875607136 0.04347663330126992 12.447974739923847 -8.24614842581005 6.864754188024938 0.026911076702634252 46.41867027645231 0.03230971180466512 -4.3623603069443675 -14.707687144926101 -3.7958314022206667 -0.04659116430192547 -0.048290654139907595 -0.011959133489373427 -0.012101551027129976 -10.76085975506458 -0.02023321137893469 
-0.021688557190853608 -0.02597653667400225 0.01982051146673481 -0.03242745300414545 0.028433861280714297 -0.013515485848104856 2.8715038868433354 2.77383909200324 -1.7862327365296218 -0.5704611563611675 3.7548970325762836 0.3428429109751616 -0.6897518875679974 -1.339277753234418 1.6362282568768518 -0.7598179523948797 -0.5322570730995119 -0.20921096936076955 0.18679324319565885 12.379534150121598 -1.1752204218618396 0.5695656979985854 -0.9407527596559322 -3.2550135998692546 1.1235843802792325 -17.22790352796664 -0.3690141406676703 -6.65151610937035 2.470157256545493 -17.14657485609739 77.65945437347308 12.42240315943304 5.157086284526936 -5.812822515249238 0.25921687335544774 57.50864977537783 26.15615155191023 -0.306800160689165 -5.666931798265117 4.507220679867662 -0.15029410399364296 -1.5972285919070512 0.037929393572007856 0.017907162208923844 -56.222199224065655 0.016239897020446946 0.017266583720901778 -56.22678043287114 -38.81651799891882 0.01704483957284351 -0.01129828404761601 -0.04031674893384013 0.026280460902749585 0.03428114962263406 0.025049212754446513 -0.025981091146437752 -0.025252914254754073 -36.67423895325887 0.017438557822706532 0.040910148059787495 -0.0038560600316682064 -0.03813417207620136 -0.04057916439430221 -0.04594263381172801 0.00888965550442472 -0.005415717551024925 -19.74901725435838 0.049532662491449844 0.015547514056796753 0.01766708485880759 0.03408795658978847 -0.03491752479026956 -0.02040875175043449 -0.04224774745697468 -0.009417694238908925 24.00452357089786 -0.012056146758798547 -0.03519060338904144 28.892321882164424 0.01881513865986403 0.043152993657917214 28.870209864283296 -0.03898118698321273 0.02353275400315372 6.01550896799379 1.6929767360523735 15.123331770015827 -79.74487651211798 20.73001989372009 -3.7331042713746942 9.23592253342237 4.153488584451588 -35.781249064696496 -26.466843234262605 6.057177742609582 -2.412103931344973 -0.43276492865290483 0.07249484379674072 -8.101770925545107 0.00158638099214025 0.03815738276970258 44.60147991628598 -0.02765168749370959 -0.008331415043899811 44.59719667770992 12.504855350514935 -0.025416970092910045 -0.02407410618110492 0.037314678491639816 0.048908970019923025 0.008898358667586854 0.031656700866614686 0.0439838356597428 0.03188561910207703 11.096185591363213 0.04597467167753182 0.031575593402740076 -0.006081718197762095 0.023325093483133365 0.028549516888606956 0.03065610142299315 0.03931187010815791 0.034351907992368806 4.7600835583685805 -0.026720608443868747 -0.025398709518041466 -0.0032682578610243903 -0.00027607436456365093 -0.04580837525300045 0.024382247441833323 0.0001774812028199469 0.01731745662371234 -5.592006156480173 -0.027286896125792003 -0.032330807277174994 -6.765010021229596 -0.0120128057331776 -0.001254187138159011 -6.763716522650462 0.02250896010260359 -0.04708780177988243 0.013315750782133302 0.041752092586954434 -0.005546167458420792 8.076937268768793 3.50980050619232 -19.247745259678524 0.033081702481418146 10.435548974539849 0.04383597067843485 -5.585838670241143 -15.622130522643674 3.242003602106868 -0.0013276207476380737 0.012597558641839536 -0.03421615795293523 -0.001749084495310829 4.692073769766 0.005886163206391936 12.488836698022393 -8.228559345905502 6.871308272534893 -0.02150297934199752 46.41734989409311 -0.017513328211255112 -4.294118870871603 -14.786832234928344 -3.787049041860814 -0.01838184139278338 -0.03651714458820428 0.03406319028520251 -0.01883850065616343 -10.737196027081817 0.010232713044536879 
